<svg width="500" height="100" viewBox="0 0 500 100" fill="none" xmlns="http://www.w3.org/2000/svg">
<rect width="500" height="100" fill="white"/>
<path d="M12.3409 77H31.2614C43.6364 77 48.75 70.9659 48.75 63.0909C48.75 54.8068 43.0227 50.3068 38.2159 50V49.4886C42.7159 48.2614 46.7045 45.2955 46.7045 38.5455C46.7045 30.875 41.5909 24.6364 30.6477 24.6364H12.3409V77ZM18.6818 71.375V53.1705H31.5682C38.4205 53.1705 42.7159 57.7727 42.7159 63.0909C42.7159 67.6932 39.5455 71.375 31.2614 71.375H18.6818ZM18.6818 47.6477V30.2614H30.6477C37.6023 30.2614 40.6705 33.9432 40.6705 38.5455C40.6705 44.0682 36.1705 47.6477 30.4432 47.6477H18.6818ZM64.3849 24.6364H58.3509V77H64.3849V24.6364ZM86.9936 77.9205C93.8459 77.9205 97.4254 74.2386 98.6527 71.6818H98.9595V77H104.994V51.125C104.994 38.6477 95.4822 37.2159 90.4709 37.2159C84.5391 37.2159 77.7891 39.2614 74.7209 46.4205L80.4482 48.4659C81.7777 45.6023 84.9226 42.5341 90.6754 42.5341C96.2237 42.5341 98.9595 45.4744 98.9595 50.5114V50.7159C98.9595 53.6307 95.9936 53.375 88.8345 54.2955C81.5476 55.2415 73.5959 56.8523 73.5959 65.8523C73.5959 73.5227 79.5277 77.9205 86.9936 77.9205ZM87.9141 72.5C83.1072 72.5 79.63 70.3523 79.63 66.1591C79.63 61.5568 83.8232 60.125 88.5277 59.5114C91.0845 59.2045 97.9368 58.4886 98.9595 57.2614V62.7841C98.9595 67.6932 95.0732 72.5 87.9141 72.5ZM116.007 77H122.041V62.2983L126.26 58.3864L140.962 77H148.632L130.811 54.5L147.405 37.7273H139.939L122.757 55.2159H122.041V24.6364H116.007V77ZM170.02 77.8182C177.997 77.8182 183.827 73.8295 185.668 67.8977L179.838 66.2614C178.304 70.3523 174.75 72.3977 170.02 72.3977C162.938 72.3977 158.054 67.821 157.773 59.4091H186.281V56.8523C186.281 42.2273 177.588 37.2159 169.406 37.2159C158.77 37.2159 151.713 45.6023 151.713 57.6705C151.713 69.7386 158.668 77.8182 170.02 77.8182ZM157.773 54.1932C158.182 48.0824 162.503 42.6364 169.406 42.6364C175.952 42.6364 180.145 47.5455 180.145 54.1932H157.773ZM216.528 77H235.449C247.824 77 252.938 70.9659 252.938 63.0909C252.938 54.8068 247.21 50.3068 242.403 50V49.4886C246.903 48.2614 250.892 45.2955 250.892 38.5455C250.892 30.875 245.778 24.6364 234.835 24.6364H216.528V77ZM222.869 71.375V53.1705H235.756C242.608 53.1705 246.903 57.7727 246.903 63.0909C246.903 67.6932 243.733 71.375 235.449 71.375H222.869ZM222.869 47.6477V30.2614H234.835C241.79 30.2614 244.858 33.9432 244.858 38.5455C244.858 44.0682 240.358 47.6477 234.631 47.6477H222.869ZM278.493 77.8182C289.129 77.8182 296.288 69.7386 296.288 57.5682C296.288 45.2955 289.129 37.2159 278.493 37.2159C267.857 37.2159 260.697 45.2955 260.697 57.5682C260.697 69.7386 267.857 77.8182 278.493 77.8182ZM278.493 72.3977C270.413 72.3977 266.732 65.4432 266.732 57.5682C266.732 49.6932 270.413 42.6364 278.493 42.6364C286.572 42.6364 290.254 49.6932 290.254 57.5682C290.254 65.4432 286.572 72.3977 278.493 72.3977ZM330.249 60.9432C330.249 68.3068 324.624 71.6818 320.124 71.6818C315.113 71.6818 311.533 68 311.533 62.2727V37.7273H305.499V62.6818C305.499 72.7045 310.817 77.5114 318.181 77.5114C324.113 77.5114 327.999 74.3409 329.84 70.3523H330.249V77H336.283V37.7273H330.249V60.9432ZM363.29 77.8182C371.983 77.8182 377.71 72.5 378.733 65.5455H372.699C371.574 69.8409 367.994 72.3977 363.29 72.3977C356.131 72.3977 351.528 66.4659 351.528 57.3636C351.528 48.4659 356.233 42.6364 363.29 42.6364C368.608 42.6364 371.778 45.9091 372.699 49.4886H378.733C377.71 42.125 371.472 37.2159 363.188 37.2159C352.551 37.2159 345.494 45.6023 345.494 57.5682C345.494 69.3295 352.244 77.8182 363.29 77.8182ZM393.588 53.375C393.588 46.5227 397.96 42.6364 403.918 42.6364C409.594 42.6364 413.02 46.2159 413.02 52.4545V77H419.054V52.0455C419.054 41.946 413.685 37.2159 405.656 37.2159C399.469 37.2159 395.94 39.7983 394.099 43.8636H393.588V24.6364H387.554V77H393.588V53.375ZM446.559 77.8182C454.536 77.8182 460.366 73.8295 462.207 67.8977L456.377 66.2614C454.843 70.3523 451.289 72.3977 446.559 72.3977C439.477 72.3977 434.593 67.821 434.312 59.4091H462.82V56.8523C462.82 42.2273 454.127 37.2159 445.945 37.2159C435.309 37.2159 428.252 45.6023 428.252 57.6705C428.252 69.7386 435.207 77.8182 446.559 77.8182ZM434.312 54.1932C434.721 48.0824 439.042 42.6364 445.945 42.6364C452.491 42.6364 456.684 47.5455 456.684 54.1932H434.312ZM471.999 77H478.033V52.1477C478.033 46.8295 482.227 42.9432 487.954 42.9432C489.565 42.9432 491.227 43.25 491.636 43.3523V37.2159C490.945 37.1648 489.36 37.1136 488.465 37.1136C483.761 37.1136 479.67 39.7727 478.238 43.6591H477.829V37.7273H471.999V77Z" fill="black"/>
</svg>
